{"title":"Ghosts of Girlfriends Past 2009 DVDrip English Klam","uid":6665490,"size":1613379498,"categoryP":"video","categoryS":"movies","magnet":"?xt=urn:btih:77842e86244d78c70c968cbadaa9d6394f799d41&amp;dn=Ghosts+of+Girlfriends+Past+2009+DVDrip+English+Klam&amp;tr=udp%3A%2F%2Ftracker.openbittorrent.com%3A80&amp;tr=udp%3A%2F%2Fopen.demonii.com%3A1337&amp;tr=udp%3A%2F%2Ftracker.coppersurfer.tk%3A6969&amp;tr=udp%3A%2F%2Fexodus.desync.com%3A6969","seeders":0,"leechers":0,"uploader":"Klambake","files":-1,"time":1315665591,"description":"With: Matthew McConaughey, Jennifer Garner and Michael Douglas\n\nDe succesvolle en knappe vrijgezel Connor (Matthew McConaughey) wijst de ene na de andere vrouw de deur. Connor houdt van vrouwen maar voor relaties voelt hij niet zo veel. Hij wil maar ÃƒÂ©ÃƒÂ©n ding: plezier maken. Zelfs de relatie met zijn jeugdliefde Jenny liep op de klippen. Dan wordt hij door drie geesten bezocht die hem langs zijn mislukte relaties loodsen. Dan beseft hij pas dat hij Jenny niet zomaar met een ander kan laten trouwen...\n\nA bachelor is haunted by the ghosts of his past girlfriends at his younger brother's wedding. \n\n------------------ Dutch Friends ------------------\nYou can find my Friends at: http://www.Film-Test.nl \n------ They got my dutchs subs ---- and more ------\n\nGeneral:\n\nComplete name                    : Ghosts of Girlfriends Past\\Ghosts of Girlfriends Past.avi\nFormat                           : AVI\nFormat/Info                      : Audio Video Interleave\nFile size                        : 1.50 GiB\nDuration                         : 1h 36mn\nOverall bit rate                 : 2 228 Kbps\n\nVideo:\n\nFormat                           : MPEG-4 Visual\nFormat profile                   : Simple@L3\nFormat settings, BVOP            : No\nFormat settings, QPel            : No\nFormat settings, GMC             : No warppoints\nFormat settings, Matrix          : Default (H.263)\nCodec ID                         : XVID\nCodec ID/Hint                    : XviD\nDuration                         : 1h 36mn\nBit rate                         : 1 769 Kbps\nWidth                            : 720 pixels\nHeight                           : 304 pixels\nDisplay aspect ratio             : 2.35:1\nFrame rate                       : 25.000 fps\nColor space                      : YUV\nChroma subsampling               : 4:2:0\nBit depth                        : 8 bits\nScan type                        : Progressive\nBits/(Pixel*Frame)               : 0.323\nStream size                      : 1.19 GiB (79%)\nWriting library                  : XviD 1.1.2 (UTC 2006-11-01)\n\nAudio:\n\nFormat                           : AC-3\nFormat/Info                      : Audio Coding 3\nMode extension                   : CM (complete main)\nCodec ID                         : 2000\nDuration                         : 1h 36mn\nBit rate mode                    : Constant\nBit rate                         : 448 Kbps\nChannel(s)                       : 6 channels\nChannel positions                : Front: L C R, Side: L R, LFE\nSampling rate                    : 48.0 KHz\nBit depth                        : 16 bits\nStream size                      : 309 MiB (20%)\nAlignment                        : Aligned on interleaves\nInterleave, duration             : 32 ms (0.80 video frame)\nInterleave, preload duration     : 160 ms\n\n","torrent":{"xt":"urn:btih:77842e86244d78c70c968cbadaa9d6394f799d41","amp;dn":"Ghosts+of+Girlfriends+Past+2009+DVDrip+English+Klam","amp;tr":["udp%3A%2F%2Ftracker.openbittorrent.com%3A80","udp%3A%2F%2Fopen.demonii.com%3A1337","udp%3A%2F%2Ftracker.coppersurfer.tk%3A6969","udp%3A%2F%2Fexodus.desync.com%3A6969"],"infoHash":"77842e86244d78c70c968cbadaa9d6394f799d41","infoHashBuffer":{"type":"Buffer","data":[119,132,46,134,36,77,120,199,12,150,140,186,218,169,214,57,79,121,157,65]},"announce":[],"urlList":[]}}